<svg xmlns="http://www.w3.org/2000/svg" viewBox="0 0 200 200" width="200" height="200">
  <rect width="200" height="200" rx="16" fill="#fff0f0"/>
  <circle cx="100" cy="100" r="60" fill="#ffe4e4"/>
  <!-- Heart -->
  <path d="M100 135 C100 135 60 108 60 85 C60 72 70 65 80 65 C88 65 96 70 100 76 C104 70 112 65 120 65 C130 65 140 72 140 85 C140 108 100 135 100 135Z"
        fill="#ef4444" opacity="0.85"/>
  <!-- ECG line -->
  <path d="M52 110 L70 110 L78 92 L85 128 L94 98 L100 114 L106 110 L148 110"
        fill="none" stroke="#14b8a6" stroke-width="3.5" stroke-linecap="round" stroke-linejoin="round"/>
</svg>
