<svg xmlns="http://www.w3.org/2000/svg" viewBox="0 0 200 200" width="200" height="200">
  <rect width="200" height="200" rx="16" fill="#fff8f0"/>
  <circle cx="100" cy="100" r="60" fill="#ffedd5"/>
  <!-- Hand/skin outline -->
  <path d="M100 145 C80 145 65 130 65 110 L65 88 C65 84 68 82 71 82 C74 82 77 84 77 88 L77 100"
        fill="none" stroke="#f97316" stroke-width="4" stroke-linecap="round" stroke-linejoin="round"/>
  <path d="M77 100 L77 78 C77 74 80 72 83 72 C86 72 89 74 89 78 L89 98"
        fill="none" stroke="#f97316" stroke-width="4" stroke-linecap="round" stroke-linejoin="round"/>
  <path d="M89 98 L89 74 C89 70 92 68 95 68 C98 68 101 70 101 74 L101 98"
        fill="none" stroke="#f97316" stroke-width="4" stroke-linecap="round" stroke-linejoin="round"/>
  <path d="M101 98 L101 78 C101 74 104 72 107 72 C110 72 113 74 113 78 L113 100"
        fill="none" stroke="#f97316" stroke-width="4" stroke-linecap="round" stroke-linejoin="round"/>
  <path d="M113 100 L113 88 C113 84 116 82 119 82 C122 82 125 84 125 88 L125 110 C125 130 110 145 100 145"
        fill="none" stroke="#f97316" stroke-width="4" stroke-linecap="round" stroke-linejoin="round"/>
  <!-- Skin dots (dermatology) -->
  <circle cx="90" cy="108" r="4" fill="#14b8a6" opacity="0.7"/>
  <circle cx="104" cy="115" r="3" fill="#14b8a6" opacity="0.7"/>
  <circle cx="112" cy="104" r="3.5" fill="#14b8a6" opacity="0.7"/>
</svg>
