<svg xmlns="http://www.w3.org/2000/svg" viewBox="0 0 200 200" width="200" height="200">
  <rect width="200" height="200" rx="16" fill="#f5f0ff"/>
  <circle cx="100" cy="100" r="60" fill="#ede9fe"/>
  <!-- Brain outline -->
  <path d="M100 65 C85 65 73 72 70 82 C65 82 58 88 60 97 C57 102 58 110 63 115
           C63 125 70 132 80 133 C85 138 93 140 100 140
           C107 140 115 138 120 133 C130 132 137 125 137 115
           C142 110 143 102 140 97 C142 88 135 82 130 82
           C127 72 115 65 100 65Z"
        fill="none" stroke="#7c3aed" stroke-width="4" stroke-linecap="round" stroke-linejoin="round"/>
  <!-- Center divide -->
  <path d="M100 68 L100 138" stroke="#7c3aed" stroke-width="2.5" stroke-dasharray="5,4" stroke-linecap="round"/>
  <!-- Neural connections -->
  <path d="M80 90 C85 95 90 90 95 98" fill="none" stroke="#14b8a6" stroke-width="2.5" stroke-linecap="round"/>
  <path d="M120 90 C115 95 110 90 105 98" fill="none" stroke="#14b8a6" stroke-width="2.5" stroke-linecap="round"/>
  <path d="M75 108 C82 112 88 108 95 114" fill="none" stroke="#14b8a6" stroke-width="2.5" stroke-linecap="round"/>
  <path d="M125 108 C118 112 112 108 105 114" fill="none" stroke="#14b8a6" stroke-width="2.5" stroke-linecap="round"/>
</svg>
